<svg width="31" height="31" viewBox="0 0 31 31" fill="none" xmlns="http://www.w3.org/2000/svg">
<g clip-path="url(#clip0_40_1486)">
<path d="M15.4998 15.4999C16.9207 15.4999 18.0832 14.3374 18.0832 12.9166C18.0832 11.4958 16.9207 10.3333 15.4998 10.3333C14.079 10.3333 12.9165 11.4958 12.9165 12.9166C12.9165 14.3374 14.079 15.4999 15.4998 15.4999ZM15.4998 2.58325C20.9248 2.58325 25.8332 6.74242 25.8332 13.1749C25.8332 17.2824 22.6686 22.1133 16.3523 27.6803C15.8615 28.1066 15.1253 28.1066 14.6344 27.6803C8.33109 22.1133 5.1665 17.2824 5.1665 13.1749C5.1665 6.74242 10.0748 2.58325 15.4998 2.58325Z" fill="#111928"/>
</g>
<defs>
<clipPath id="clip0_40_1486">
<rect width="31" height="31" fill="white"/>
</clipPath>
</defs>
</svg>
