<svg width="20" height="20" viewBox="0 0 20 20" fill="none" xmlns="http://www.w3.org/2000/svg">
<g clip-path="url(#clip0_40_1452)">
<path fill-rule="evenodd" clip-rule="evenodd" d="M4.99984 16.6667H14.9998C15.4582 16.6667 15.8332 17.0417 15.8332 17.5001C15.8332 17.9584 15.4582 18.3334 14.9998 18.3334H4.99984C4.5415 18.3334 4.1665 17.9584 4.1665 17.5001C4.1665 17.0417 4.5415 16.6667 4.99984 16.6667ZM9.99984 5.83341C9.08317 5.83341 8.33317 6.58341 8.33317 7.50008C8.33317 8.41675 9.08317 9.16675 9.99984 9.16675C10.4419 9.16675 10.8658 8.99115 11.1783 8.67859C11.4909 8.36603 11.6665 7.94211 11.6665 7.50008C11.6665 7.05805 11.4909 6.63413 11.1783 6.32157C10.8658 6.00901 10.4419 5.83341 9.99984 5.83341V5.83341ZM9.99984 1.66675C12.7248 1.66675 15.8332 3.71675 15.8332 7.62508C15.8332 10.1084 14.0582 12.7251 10.5082 15.4501C10.2082 15.6834 9.7915 15.6834 9.4915 15.4501C5.9415 12.7167 4.1665 10.1084 4.1665 7.62508C4.1665 3.71675 7.27484 1.66675 9.99984 1.66675Z" fill="#111928"/>
</g>
<defs>
<clipPath id="clip0_40_1452">
<rect width="20" height="20" fill="white"/>
</clipPath>
</defs>
</svg>
