<svg width="20" height="20" viewBox="0 0 20 20" fill="none" xmlns="http://www.w3.org/2000/svg">
<g clip-path="url(#clip0_40_1436)">
<path d="M10.0002 6.66659C8.1585 6.66659 6.66683 8.15825 6.66683 9.99992C6.66683 11.8416 8.1585 13.3333 10.0002 13.3333C11.8418 13.3333 13.3335 11.8416 13.3335 9.99992C13.3335 8.15825 11.8418 6.66659 10.0002 6.66659ZM17.4502 9.16659C17.0668 5.69159 14.3085 2.93325 10.8335 2.54992V1.66659C10.8335 1.20825 10.4585 0.833252 10.0002 0.833252C9.54183 0.833252 9.16683 1.20825 9.16683 1.66659V2.54992C5.69183 2.93325 2.9335 5.69159 2.55016 9.16659H1.66683C1.2085 9.16659 0.833496 9.54159 0.833496 9.99992C0.833496 10.4583 1.2085 10.8333 1.66683 10.8333H2.55016C2.9335 14.3083 5.69183 17.0666 9.16683 17.4499V18.3333C9.16683 18.7916 9.54183 19.1666 10.0002 19.1666C10.4585 19.1666 10.8335 18.7916 10.8335 18.3333V17.4499C14.3085 17.0666 17.0668 14.3083 17.4502 10.8333H18.3335C18.7918 10.8333 19.1668 10.4583 19.1668 9.99992C19.1668 9.54159 18.7918 9.16659 18.3335 9.16659H17.4502V9.16659ZM10.0002 15.8333C6.77516 15.8333 4.16683 13.2249 4.16683 9.99992C4.16683 6.77492 6.77516 4.16659 10.0002 4.16659C13.2252 4.16659 15.8335 6.77492 15.8335 9.99992C15.8335 13.2249 13.2252 15.8333 10.0002 15.8333Z" fill="#111928"/>
</g>
<defs>
<clipPath id="clip0_40_1436">
<rect width="20" height="20" fill="white"/>
</clipPath>
</defs>
</svg>
