<svg width="351" height="28" viewBox="0 0 351 28" fill="none" xmlns="http://www.w3.org/2000/svg">
<path d="M1.5625 11.3477V10.3047L5.3125 4.51562H6.90625V10.2578H8.06641V11.3477H6.90625V13H5.6875V11.3477H1.5625ZM2.92188 10.2578H5.6875V6.05078H5.59375L2.92188 10.1875V10.2578ZM12.25 13.1172C10.6445 13.1172 9.4375 12.1387 9.37891 10.7852H10.6328C10.7031 11.5059 11.3945 12.0332 12.25 12.0391C13.2812 12.0332 14.0195 11.2891 14.0195 10.2812C14.0195 9.25 13.2578 8.5 12.1914 8.48828C11.5117 8.48828 10.9902 8.7168 10.7031 9.23828H9.48438L10.0352 4.51562H14.8398V5.61719H11.1016L10.8203 7.99609H10.9023C11.2539 7.65625 11.8516 7.42773 12.4961 7.42188C14.0957 7.42773 15.2734 8.61133 15.2734 10.2461C15.2734 11.916 14.0195 13.1172 12.25 13.1172ZM25.8789 8.99219V9.88281H21.707V11.8164H20.6055V9.88281H16.2695V8.99219H25.8789ZM17.4648 13.7734V10.9023H18.5664V12.8711H24.8125V13.7734H17.4648ZM17.5352 8.06641V3.82422H18.6367V5.10156H23.5V3.82422H24.6133V8.06641H17.5352ZM18.6367 7.17578H23.5V5.93359H18.6367V7.17578Z" fill="#6B7280"/>
<path d="M336.984 13.1172C335.379 13.1172 334.172 12.1387 334.113 10.7852H335.367C335.438 11.5059 336.129 12.0332 336.984 12.0391C338.016 12.0332 338.754 11.2891 338.754 10.2812C338.754 9.25 337.992 8.5 336.926 8.48828C336.246 8.48828 335.725 8.7168 335.438 9.23828H334.219L334.77 4.51562H339.574V5.61719H335.836L335.555 7.99609H335.637C335.988 7.65625 336.586 7.42773 337.23 7.42188C338.83 7.42773 340.008 8.61133 340.008 10.2461C340.008 11.916 338.754 13.1172 336.984 13.1172ZM350.613 8.99219V9.88281H346.441V11.8164H345.34V9.88281H341.004V8.99219H350.613ZM342.199 13.7734V10.9023H343.301V12.8711H349.547V13.7734H342.199ZM342.27 8.06641V3.82422H343.371V5.10156H348.234V3.82422H349.348V8.06641H342.27ZM343.371 7.17578H348.234V5.93359H343.371V7.17578Z" fill="#6B7280"/>
<rect x="1" y="22" width="350" height="6" rx="2" fill="#E5E7EB"/>
<rect y="22" width="284" height="6" rx="2" fill="#7E3AF2"/>
</svg>
