<svg width="34" height="34" viewBox="0 0 34 34" fill="none" xmlns="http://www.w3.org/2000/svg">
<g clip-path="url(#clip0_40_1455)">
<path d="M26.6191 24.0834C27.2566 24.0834 27.5682 24.8484 27.1149 25.2876L23.1624 29.2401C22.8791 29.5234 22.4399 29.5234 22.1566 29.2401L18.2041 25.2876C17.7649 24.8484 18.0766 24.0834 18.7141 24.0834L21.2499 24.0834L21.2499 19.8334C21.2499 19.0543 21.8874 18.4168 22.6666 18.4168C23.4457 18.4168 24.0832 19.0543 24.0832 19.8334L24.0832 24.0834L26.6191 24.0834ZM24.0832 14.1668C24.0832 13.3876 23.4457 12.7501 22.6666 12.7501C21.8874 12.7501 21.2499 13.3876 21.2499 14.1668C21.2499 14.9459 21.8874 15.5834 22.6666 15.5834C23.4457 15.5834 24.0832 14.9459 24.0832 14.1668ZM24.0832 8.50011C24.0832 7.72094 23.4457 7.08344 22.6666 7.08344C21.8874 7.08344 21.2499 7.72094 21.2499 8.50011C21.2499 9.27927 21.8874 9.91677 22.6666 9.91677C23.4457 9.91677 24.0832 9.27927 24.0832 8.50011ZM9.91658 9.91677L9.91658 14.1668C9.91658 14.9459 10.5541 15.5834 11.3332 15.5834C12.1124 15.5834 12.7499 14.9459 12.7499 14.1668L12.7499 9.91677L15.2857 9.91677C15.9232 9.91677 16.2349 9.15177 15.7816 8.71261L11.8291 4.76011C11.5457 4.47677 11.1066 4.47677 10.8232 4.76011L6.87075 8.71261C6.43158 9.15177 6.74325 9.91677 7.38075 9.91677L9.91658 9.91677ZM9.91658 19.8334C9.91658 20.6126 10.5541 21.2501 11.3332 21.2501C12.1124 21.2501 12.7499 20.6126 12.7499 19.8334C12.7499 19.0543 12.1124 18.4168 11.3332 18.4168C10.5541 18.4168 9.91658 19.0543 9.91658 19.8334ZM9.91658 25.5001C9.91658 26.2793 10.5541 26.9168 11.3332 26.9168C12.1124 26.9168 12.7499 26.2793 12.7499 25.5001C12.7499 24.7209 12.1124 24.0834 11.3332 24.0834C10.5541 24.0834 9.91658 24.7209 9.91658 25.5001Z" fill="#111928"/>
</g>
<defs>
<clipPath id="clip0_40_1455">
<rect width="34" height="34" fill="white" transform="translate(34) rotate(90)"/>
</clipPath>
</defs>
</svg>
